<svg width="54" height="64" viewBox="0 0 54 64" fill="none" xmlns="http://www.w3.org/2000/svg">
<ellipse cx="39" cy="42" rx="15" ry="14" fill="#FA881E"/>
<path d="M16.8 26.96C18.6133 27.1733 19.9067 27.7867 20.68 28.8C21.4533 29.7867 21.84 30.9867 21.84 32.4C21.84 33.28 21.7067 34.12 21.44 34.92C21.1733 35.6933 20.8533 36.36 20.48 36.92C20.1067 37.4533 19.7867 37.8 19.52 37.96C18.4533 38.6533 15.2 39 9.76 39H2V16.2H11.4C13.5333 16.2 15.2533 16.32 16.56 16.56C17.8933 16.7733 18.9733 17.28 19.8 18.08C20.6267 18.8533 21.04 20.04 21.04 21.64C21.04 23.0267 20.6933 24.1467 20 25C19.3333 25.8533 18.2667 26.44 16.8 26.76V26.96ZM13.6 21.04C13.3333 20.7733 13.0133 20.6133 12.64 20.56C12.2933 20.48 11.7333 20.44 10.96 20.44C10.1867 20.44 9.6 20.4533 9.2 20.48V25.36H9.6C9.73333 25.36 10.2933 25.36 11.28 25.36C12.2667 25.36 12.92 25.2933 13.24 25.16C13.48 25.0533 13.6933 24.7733 13.88 24.32C14.0933 23.8667 14.2 23.3733 14.2 22.84C14.2 22.04 14 21.44 13.6 21.04ZM14.28 34.4C14.4667 34.24 14.6133 33.9467 14.72 33.52C14.8533 33.0667 14.92 32.6133 14.92 32.16C14.92 31.6 14.84 31.08 14.68 30.6C14.5467 30.0933 14.36 29.7333 14.12 29.52C13.88 29.28 13.5333 29.12 13.08 29.04C12.6533 28.96 11.92 28.92 10.88 28.92C10.2133 28.92 9.65333 28.9333 9.2 28.96V34.76C10.4533 34.7867 11.5733 34.7733 12.56 34.72C13.5467 34.64 14.12 34.5333 14.28 34.4ZM31.4116 22.36C31.4116 22.92 31.6916 23.36 32.2516 23.68C32.8382 24 33.7449 24.3467 34.9716 24.72C36.4382 25.2 37.6382 25.6667 38.5716 26.12C39.5316 26.5733 40.3582 27.28 41.0516 28.24C41.7716 29.2 42.1316 30.4533 42.1316 32C42.1316 36.96 38.9049 39.44 32.4516 39.44C31.3849 39.44 30.0782 39.3467 28.5316 39.16C27.0116 38.9733 25.6249 38.7333 24.3716 38.44C24.4249 37.88 24.5316 37.0667 24.6916 36C24.8782 34.9067 25.0516 34.0933 25.2116 33.56C26.1449 33.6933 27.5449 33.8533 29.4116 34.04C31.3049 34.2267 32.7316 34.32 33.6916 34.32C34.2516 34.32 34.5849 34.28 34.6916 34.2C34.8516 34.0933 34.9716 33.92 35.0516 33.68C35.1582 33.4133 35.2116 33.1867 35.2116 33C35.2116 32.4667 34.9582 32.0667 34.4516 31.8C33.9449 31.5067 33.0782 31.16 31.8516 30.76C30.3849 30.3067 29.1716 29.84 28.2116 29.36C27.2516 28.88 26.4116 28.1333 25.6916 27.12C24.9716 26.1067 24.6116 24.7733 24.6116 23.12C24.6116 21.9467 24.8782 20.8 25.4116 19.68C25.9449 18.5333 26.4916 17.76 27.0516 17.36C27.4782 17.0667 28.3582 16.7867 29.6916 16.52C31.0249 16.2533 32.2782 16.12 33.4516 16.12C36.4382 16.12 38.8782 16.4 40.7716 16.96C40.7449 17.4933 40.6516 18.2267 40.4916 19.16C40.3582 20.0933 40.2116 20.9467 40.0516 21.72L39.1316 21.68C35.6649 21.44 33.4516 21.32 32.4916 21.32C32.0916 21.32 31.8649 21.3333 31.8116 21.36C31.7049 21.4133 31.6116 21.5333 31.5316 21.72C31.4516 21.9067 31.4116 22.12 31.4116 22.36Z" fill="black"/>
<path d="M4.85778 48.9111V53H1.88889V42.8667H4.89333L7.57778 46.9556C7.98074 47.56 8.28889 48.0696 8.50222 48.4844H8.55556V46.7778V42.8667H11.5067V53H8.48445L5.72889 48.7333L4.92889 47.5244H4.87556L4.85778 48.9111ZM21.2782 44.8222V53H18.8071L18.4693 51.6311C17.616 52.6622 16.5967 53.1778 15.4115 53.1778C14.9849 53.1778 14.5819 53.1185 14.2026 53C13.8352 52.8815 13.5567 52.7096 13.3671 52.4844C13.2604 52.3541 13.1775 52.0281 13.1182 51.5067C13.0708 50.9852 13.0471 50.1911 13.0471 49.1244V44.8222H16.0871V49.0889C16.0871 49.3259 16.093 49.6044 16.1049 49.9244C16.1167 50.2444 16.1523 50.4459 16.2115 50.5289C16.2945 50.6474 16.5315 50.7067 16.9226 50.7067L17.2071 50.6889C17.5389 50.677 17.8826 50.6 18.2382 50.4578V44.8222H21.2782ZM26.5047 49.64C26.5047 49.8533 26.5107 50.0785 26.5225 50.3156C26.5344 50.5407 26.5699 50.683 26.6292 50.7422C26.7121 50.8252 27.0025 50.8667 27.5003 50.8667L28.1047 50.8489C28.2114 51.4178 28.2647 52.0756 28.2647 52.8222C28.0395 52.9052 27.7077 52.9822 27.2692 53.0533C26.8425 53.1244 26.4336 53.16 26.0425 53.16C25.2247 53.16 24.5907 52.9822 24.1403 52.6267C23.7018 52.2593 23.4825 51.6963 23.4825 50.9378V46.5644H22.1492V44.9467L23.4825 44.8222L24.2825 42.8667L26.5047 42.7422V44.8222H28.3892V46.5644H26.5047V49.64ZM34.365 44.6444C34.5191 44.6444 34.6791 44.6622 34.845 44.6978C35.0228 44.7333 35.1532 44.7748 35.2361 44.8222C35.2361 45.083 35.2065 45.5156 35.1472 46.12C35.088 46.7126 35.0346 47.1333 34.9872 47.3822C34.8687 47.3704 34.6494 47.3644 34.3294 47.3644C33.5828 47.3644 32.9191 47.4059 32.3383 47.4889V53H29.2983V44.8222H31.8406L32.1961 46.1378H32.2139C32.5576 45.6874 32.925 45.3259 33.3161 45.0533C33.7072 44.7807 34.0569 44.6444 34.365 44.6444ZM37.6167 43.8089C37.2137 43.8089 36.8641 43.6726 36.5678 43.4C36.2833 43.1274 36.1411 42.8015 36.1411 42.4222C36.1411 42.043 36.2833 41.717 36.5678 41.4444C36.8641 41.1719 37.2137 41.0356 37.6167 41.0356C38.0196 41.0356 38.3633 41.1719 38.6478 41.4444C38.9322 41.717 39.0744 42.043 39.0744 42.4222C39.0744 42.8015 38.9322 43.1274 38.6478 43.4C38.3633 43.6726 38.0196 43.8089 37.6167 43.8089ZM36.0878 44.8222H39.1278V53H36.0878V44.8222Z" fill="black"/>
</svg>
