<svg width="30" height="30" viewBox="0 0 30 30" fill="none" xmlns="http://www.w3.org/2000/svg">
<g clip-path="url(#clip0_11_3)">
<path d="M29.3578 24.6188C29.1003 24.6188 28.8641 24.4714 28.7629 24.2296C28.6887 24.0542 26.8331 19.892 19.8954 19.0677C18.4503 18.8923 16.7195 18.8023 14.6176 18.7866V23.9744C14.6176 24.2139 14.4883 24.431 14.2758 24.5457C14.0643 24.6559 13.8113 24.6401 13.6145 24.5085L0.28565 15.5364C0.105713 15.4161 0 15.2137 0 15.0011C0 14.7863 0.105713 14.5906 0.28565 14.4647L13.6201 5.49146C13.8169 5.35538 14.0677 5.34638 14.2814 5.45884C14.4951 5.57355 14.6221 5.7906 14.6221 6.0234V10.8513C17.5214 11.2292 30 13.4717 30 23.98C30 24.2848 29.7852 24.5513 29.4838 24.612C29.4422 24.6188 29.3983 24.6188 29.3578 24.6188Z" fill="black"/>
</g>
<defs>
<clipPath id="clip0_11_3">
<rect width="30" height="30" fill="white"/>
</clipPath>
</defs>
</svg>
