<svg width="24" height="24" viewBox="0 0 24 24" fill="none" xmlns="http://www.w3.org/2000/svg">
<g clip-path="url(#clip0_13_64)">
<path d="M22.3147 0.0368021L12.3997 2.72255C12.1477 2.79005 11.6002 2.7893 11.3497 2.7188L1.68974 0.0420521C0.827993 -0.195698 -0.00750732 0.426052 -0.00750732 1.31405V19.5511C-0.00750732 20.3033 0.562493 21.0226 1.28849 21.2251L10.9485 23.9026C11.2072 23.9746 11.5395 24.0143 11.8845 24.0143C12.1207 24.0143 12.4702 23.9963 12.792 23.9078L22.707 21.2221C23.4352 21.0256 24.0075 20.3071 24.0075 19.5518V1.31405C24.0082 0.426802 23.1735 -0.196448 22.3147 0.0368021ZM11.25 22.4281L1.66574 19.7783C1.59374 19.7588 1.49174 19.6261 1.49174 19.5511V1.5503L10.9477 4.1648C11.0392 4.1903 11.142 4.21055 11.2492 4.22705V22.4288L11.25 22.4281ZM22.5075 19.5511C22.5075 19.6253 22.386 19.7536 22.314 19.7738L12.7492 22.3643V4.17905C12.7627 4.1753 12.7777 4.1738 12.7912 4.17005L22.5067 1.54205L22.5075 19.5511ZM15.0465 8.5853C15.114 8.5853 15.183 8.57705 15.2505 8.55755L20.499 7.08005C20.898 6.96755 21.1305 6.55355 21.018 6.15455C20.9055 5.75555 20.4892 5.52455 20.0925 5.63555L14.844 7.11305C14.445 7.22555 14.2125 7.63955 14.325 8.03855C14.418 8.3693 14.7187 8.5853 15.0465 8.5853ZM15.0472 13.0853C15.1147 13.0853 15.1837 13.0763 15.2512 13.0576L20.4997 11.5801C20.8987 11.4676 21.1312 11.0536 21.0187 10.6546C20.9062 10.2556 20.49 10.0246 20.0932 10.1348L14.8447 11.6123C14.4457 11.7248 14.2132 12.1388 14.3257 12.5371C14.4187 12.8686 14.7195 13.0846 15.0472 13.0846V13.0853ZM15.0472 17.5853C15.1147 17.5853 15.1837 17.5763 15.2512 17.5576L20.4997 16.0801C20.8987 15.9668 21.1312 15.5536 21.0187 15.1546C20.9062 14.7556 20.49 14.5246 20.0932 14.6356L14.8447 16.1131C14.4457 16.2263 14.2132 16.6396 14.3257 17.0386C14.4187 17.3693 14.7195 17.5853 15.0472 17.5853ZM9.24899 7.11305L4.00049 5.63555C3.60374 5.5253 3.18749 5.7563 3.07499 6.15455C2.96249 6.5528 3.19499 6.9668 3.59399 7.08005L8.84249 8.55755C8.90999 8.5763 8.97824 8.5853 9.04574 8.5853C9.37349 8.5853 9.67424 8.3693 9.76724 8.03855C9.87899 7.6403 9.64724 7.2263 9.24749 7.11305H9.24899ZM9.24899 11.6131L4.00049 10.1356C3.60374 10.0246 3.18749 10.2563 3.07499 10.6553C2.96249 11.0543 3.19499 11.4676 3.59399 11.5808L8.84249 13.0583C8.90999 13.0778 8.97824 13.0861 9.04574 13.0861C9.37349 13.0861 9.67424 12.8701 9.76724 12.5386C9.87899 12.1403 9.64724 11.7263 9.24749 11.6131H9.24899ZM9.24899 16.1131L4.00049 14.6356C3.60374 14.5246 3.18749 14.7563 3.07499 15.1546C2.96249 15.5528 3.19499 15.9668 3.59399 16.0801L8.84249 17.5576C8.90999 17.5771 8.97824 17.5853 9.04574 17.5853C9.37349 17.5853 9.67424 17.3693 9.76724 17.0378C9.87899 16.6388 9.64724 16.2256 9.24749 16.1123L9.24899 16.1131Z" fill="#A0A0A0"/>
</g>
<defs>
<clipPath id="clip0_13_64">
<rect width="24" height="24" fill="white"/>
</clipPath>
</defs>
</svg>
