<svg width="24" height="24" viewBox="0 0 24 24" fill="none" xmlns="http://www.w3.org/2000/svg">
<g clip-path="url(#clip0_13_66)">
<path d="M6.38 1.59997C4.592 1.69277 2.888 2.56237 1.724 3.91197C0.56 5.25597 0 7.02877 0 8.79997C0 10.3504 0.5576 11.8528 1.3168 13.168C2.0768 14.4832 3.0688 15.6296 4.1168 16.6832C6.376 18.9496 8.9808 20.8688 11.8144 22.3552C11.9304 22.416 12.0704 22.416 12.1856 22.3552C15.02 20.8688 17.624 18.9496 19.8832 16.6832C20.9312 15.6296 21.9232 14.4832 22.6832 13.1688C23.4432 11.8536 24 10.352 24 8.79997C24 7.02397 23.44 5.25757 22.2768 3.91197C21.112 2.56157 19.408 1.69197 17.6208 1.59997C16.408 1.53757 15.1848 1.82877 14.1312 2.43197C13.2536 2.93277 12.5512 3.67837 12 4.52317C11.448 3.67837 10.7464 2.93277 9.8688 2.43117C8.816 1.82797 7.5912 1.53597 6.38 1.59997ZM6.42 2.39997C7.476 2.34557 8.552 2.59997 9.4704 3.12477C10.3888 3.64957 11.156 4.44637 11.6464 5.38397C11.7952 5.67197 12.2048 5.67197 12.3544 5.38397C12.844 4.44637 13.6104 3.64957 14.5304 3.12477C15.448 2.59997 16.5224 2.34557 17.58 2.39997C19.1336 2.47997 20.6496 3.24957 21.672 4.43197C22.696 5.61837 23.2 7.19997 23.2 8.79997C23.2 10.184 22.6976 11.544 21.9904 12.768C21.2824 13.996 20.3392 15.0912 19.3168 16.1168C17.168 18.2744 14.6864 20.0968 12 21.5296C9.3136 20.0976 6.832 18.2736 4.6832 16.1168C3.6608 15.0912 2.7176 13.9968 2.0096 12.7688C1.3024 11.544 0.8 10.184 0.8 8.79997C0.8 7.19997 1.304 5.61757 2.328 4.43197C3.3504 3.25037 4.8664 2.47997 6.42 2.39997Z" fill="#A0A0A0"/>
</g>
<defs>
<clipPath id="clip0_13_66">
<rect width="24" height="24" fill="white"/>
</clipPath>
</defs>
</svg>
