<svg width="40" height="40" viewBox="0 0 40 40" fill="none" xmlns="http://www.w3.org/2000/svg">
<g clip-path="url(#clip0_15_50)">
<path d="M3.73337 20.7107L35.3997 39.8789C35.7915 40.1207 36.3085 39.9873 36.5419 39.5954C36.6253 39.4703 36.667 39.3203 36.667 39.1702L36.667 0.833775C36.667 0.375175 36.2918 -1.5226e-05 35.8332 -1.51859e-05C35.6831 -1.51728e-05 35.533 0.0416451 35.3996 0.116684L3.74994 19.2766C3.49981 19.4266 3.32472 19.7018 3.33308 20.0019C3.33316 20.3105 3.4916 20.569 3.73337 20.7107ZM34.9995 2.30117L34.9995 37.6944L5.75941 20.0019L34.9995 2.30117Z" fill="#FAA846"/>
</g>
<defs>
<clipPath id="clip0_15_50">
<rect width="40" height="40" fill="white" transform="translate(40 40) rotate(180)"/>
</clipPath>
</defs>
</svg>
