<svg width="24" height="24" viewBox="0 0 24 24" fill="none" xmlns="http://www.w3.org/2000/svg">
<g clip-path="url(#clip0_13_68)">
<path d="M2.73824 12.7418H15.7327C16.1475 12.7418 16.4827 12.4058 16.4827 11.9918C16.4827 11.5778 16.1475 11.2418 15.7327 11.2418H2.78474L5.49749 8.529C5.79074 8.2365 5.79074 7.761 5.49749 7.4685C5.20425 7.176 4.72949 7.176 4.43699 7.4685L0.00674438 12.015L4.43699 16.5623C4.58399 16.7085 4.77525 16.782 4.96725 16.782C5.15925 16.782 5.35049 16.7085 5.49749 16.5623C5.79074 16.2698 5.79074 15.795 5.49749 15.5018L2.73824 12.7418ZM22.4917 0H9.74175C8.913 0 8.24174 0.67125 8.24174 1.5V8.25H9.7515V2.415C9.7515 1.914 10.158 1.5075 10.659 1.5075H21.5512C22.053 1.5075 22.4587 1.914 22.4587 2.415L22.4827 21.594C22.4827 22.095 22.077 22.5015 21.5752 22.5015H10.6605C10.1595 22.5015 9.753 22.095 9.753 21.594V15.726L8.24325 15.7283V22.5007C8.24325 23.3295 8.9145 24.0007 9.74325 24.0007H22.4925C23.3212 24.0007 23.9932 23.3295 23.9932 22.5007V1.50075C23.9932 0.672 23.3212 0.00075 22.4932 0.00075L22.4917 0Z" fill="#A0A0A0"/>
</g>
<defs>
<clipPath id="clip0_13_68">
<rect width="24" height="24" fill="white"/>
</clipPath>
</defs>
</svg>
