<svg width="26" height="26" viewBox="0 0 26 26" fill="none" xmlns="http://www.w3.org/2000/svg">
<path d="M10.92 1.56C6.04293 1.56 2.07996 5.52297 2.07996 10.4C2.07996 15.277 6.04293 19.24 10.92 19.24C12.8496 19.24 14.6331 18.6184 16.0875 17.5662L22.9287 24.3912L24.3912 22.9287L17.6312 16.1525C18.9596 14.6047 19.76 12.5958 19.76 10.4C19.76 5.52297 15.797 1.56 10.92 1.56ZM10.92 2.6C15.2343 2.6 18.72 6.08562 18.72 10.4C18.72 14.7144 15.2343 18.2 10.92 18.2C6.60558 18.2 3.11996 14.7144 3.11996 10.4C3.11996 6.08562 6.60558 2.6 10.92 2.6Z" fill="#FAA846"/>
</svg>
