<svg width="24" height="24" viewBox="0 0 24 24" fill="none" xmlns="http://www.w3.org/2000/svg">
<path d="M9.53268 0.109359C8.98012 0.109359 8.60784 0.547734 8.60784 1.08778V5.74819C8.60784 6.27816 8.3353 6.53166 7.91746 6.53166C7.5358 6.53166 7.31066 6.2168 7.31066 5.84297L7.28985 1.00172C7.28985 0.390844 6.75674 0 6.26202 0C5.76712 0 5.23424 0.390844 5.23424 1.00172V5.84297C5.23424 6.21684 4.98805 6.53166 4.60635 6.53166C4.18902 6.53166 3.9163 6.27816 3.9163 5.74819V1.08778C3.9163 0.547734 3.54398 0.109359 2.99141 0.109359C2.43843 0.110297 2.14391 0.586219 2.08396 1.053C2.02401 1.5202 1.71716 4.85677 1.68356 6.98925C1.64948 9.12225 3.14681 10.3697 3.99984 10.766C4.58306 11.0369 5.00521 11.6195 5.00521 12.3201L4.65627 24H7.86763L7.5187 12.3201C7.5187 11.6195 7.94057 11.037 8.52384 10.766C9.37705 10.3697 10.8744 9.12225 10.8405 6.98925C10.8067 4.85677 10.5003 1.5202 10.4399 1.053C10.3797 0.586219 10.0855 0.110297 9.53268 0.109359Z" fill="#A0A0A0"/>
<path d="M17.7385 0.184448C15.5167 0.184448 13.1598 2.55492 13.1598 6.27857C13.1598 8.41157 14.7717 10.1432 15.4765 10.766C16.1657 11.3756 16.4819 11.6195 16.4819 12.3201L16.1329 24H19.3443L18.9951 12.3201C18.9951 11.6195 19.3118 11.3756 20.001 10.766C20.7048 10.1432 22.317 8.41157 22.317 6.27857C22.317 2.55492 19.9603 0.184448 17.7385 0.184448Z" fill="#A0A0A0"/>
</svg>
