<svg width="24" height="24" viewBox="0 0 24 24" fill="none" xmlns="http://www.w3.org/2000/svg">
<g clip-path="url(#clip0_13_31)">
<path d="M5.06053 9.94354C4.84355 10.1608 4.84355 10.5128 5.06053 10.7298C5.27785 10.9471 5.62983 10.9471 5.84682 10.7298C6.06413 10.5128 6.06413 10.1608 5.84682 9.94354C5.62983 9.7265 5.27785 9.7265 5.06053 9.94354Z" fill="#A0A0A0"/>
<path d="M9.1464 7.54592C8.92947 7.32893 8.57743 7.32893 8.36012 7.54592C8.14318 7.76323 8.14318 8.11489 8.36012 8.3322C8.57743 8.54914 8.92947 8.54914 9.1464 8.3322C9.36339 8.11489 9.36339 7.76323 9.1464 7.54592Z" fill="#A0A0A0"/>
<path d="M12.3113 8.12114C12.5286 7.90415 12.5286 7.55179 12.3113 7.33486C12.0943 7.11787 11.7424 7.11787 11.5251 7.33486C11.3081 7.55179 11.3081 7.90415 11.5254 8.12114C11.7424 8.33808 12.0943 8.33808 12.3113 8.12114Z" fill="#A0A0A0"/>
<path d="M3.71785 5.58901C3.50091 5.80632 3.50091 6.15798 3.71785 6.37529C3.93516 6.5926 4.28714 6.5926 4.50413 6.37529C4.72144 6.15798 4.72144 5.80632 4.50413 5.58901C4.28714 5.37202 3.93521 5.37202 3.71785 5.58901Z" fill="#A0A0A0"/>
<path d="M9.20396 11.9192C8.98703 12.1362 8.98703 12.4882 9.20396 12.7055C9.42128 12.9225 9.77326 12.9225 9.99024 12.7055C10.2072 12.4882 10.2072 12.1362 9.99024 11.9192C9.77326 11.7019 9.42128 11.7019 9.20396 11.9192Z" fill="#A0A0A0"/>
<path d="M11.794 14.0869C11.5767 14.3042 11.5767 14.6562 11.794 14.8732C12.011 15.0905 12.363 15.0905 12.5799 14.8732C12.7972 14.6562 12.7972 14.3042 12.5803 14.0869C12.3629 13.8699 12.011 13.8699 11.794 14.0869Z" fill="#A0A0A0"/>
<path d="M15.5052 12.792C15.2883 13.0093 15.2883 13.3613 15.5052 13.5782C15.7225 13.7956 16.0742 13.7956 16.2915 13.5782C16.5088 13.3613 16.5088 13.0093 16.2915 12.792C16.0742 12.575 15.7226 12.575 15.5052 12.792Z" fill="#A0A0A0"/>
<path d="M12.2925 10.5766C12.0755 10.7935 12.0755 11.1455 12.2925 11.3625C12.5098 11.5798 12.8615 11.5798 13.0788 11.3628C13.2961 11.1455 13.2961 10.7935 13.0788 10.5766C12.8615 10.3592 12.5098 10.3592 12.2925 10.5766Z" fill="#A0A0A0"/>
<path d="M8.19688 4.00673C7.97994 3.78942 7.62758 3.78942 7.4106 4.00673C7.19366 4.22372 7.19366 4.5757 7.4106 4.79302C7.62758 5.00995 7.97994 5.00995 8.19688 4.79302C8.41382 4.5757 8.41382 4.22372 8.19688 4.00673Z" fill="#A0A0A0"/>
<path d="M23.7917 17.9624C23.649 17.5777 23.4213 17.2459 23.1506 16.9742C22.9144 16.7387 22.6433 16.5458 22.3507 16.4025L22.35 16.4021C22.0567 16.2587 21.7375 16.1628 21.404 16.1352C21.1193 16.1112 20.9181 16.0962 20.759 16.0868C20.64 16.0794 20.5441 16.0756 20.4586 16.0742L20.3753 16.0735C20.2829 16.0735 20.2037 16.076 20.1214 16.0787H20.1235C20.0272 16.0815 19.9159 16.0846 19.744 16.085L19.7356 16.0815L19.731 16.0794C19.6889 16.0599 19.596 15.9978 19.5224 15.9375C19.4457 15.8754 19.376 15.8091 19.3372 15.7704L19.3058 15.7379L19.3037 15.7358L19.3003 15.732L19.2946 15.7258L18.2907 14.7218L19.1562 13.8564L19.1813 13.7646C19.2765 13.4147 19.3246 13.107 19.325 12.8235C19.325 12.5632 19.2828 12.3232 19.2019 12.1052C19.0599 11.7215 18.8133 11.4201 18.5272 11.1233C18.0953 10.6767 17.555 10.2194 16.9536 9.48023C16.3533 8.74177 15.6915 7.72388 15.0494 6.17297C14.1344 3.96033 12.882 2.41223 11.4846 1.4212C10.0882 0.429797 8.55159 -0.000327937 7.09073 1.87585e-07C5.1209 0.00140644 3.28495 0.772688 2.05533 2.00058C0.827764 3.2302 0.056155 5.06611 0.0547487 7.03631C0.0544206 8.49684 0.484171 10.0335 1.4759 11.4302C2.46694 12.8272 4.01503 14.0799 6.22767 14.9949C8.59172 15.9755 9.71493 16.9916 10.5037 17.787C10.8992 18.1857 11.209 18.5376 11.568 18.8132C11.7476 18.9503 11.9415 19.0668 12.1599 19.147C12.3779 19.2279 12.6176 19.2702 12.8782 19.2698C13.1617 19.2698 13.4691 19.2217 13.8193 19.1265L13.9107 19.1017L14.667 18.3451L15.6636 19.3413L15.6703 19.348L15.6713 19.349L15.7169 19.3933C15.7693 19.4446 15.883 19.5681 15.9559 19.6745L15.9577 19.6766C15.9918 19.724 16.0191 19.7736 16.0289 19.7948L16.0303 19.7994C16.0299 19.95 16.0274 20.0547 16.025 20.1422C16.0233 20.2138 16.0205 20.279 16.0194 20.354L16.0187 20.4311C16.0187 20.5235 16.0215 20.6268 16.0289 20.7565C16.0376 20.9236 16.0536 21.1385 16.0805 21.4588C16.1084 21.7922 16.2047 22.1118 16.3477 22.4044C16.4914 22.6978 16.6839 22.9692 16.9191 23.2047C17.2805 23.5664 17.7527 23.8521 18.3081 23.9578C18.4532 23.9854 18.6029 24 18.7553 24C18.8948 24 19.0365 23.9878 19.1788 23.9623C19.4767 23.9097 19.7736 23.7994 20.0561 23.6333C20.2619 23.513 20.4482 23.3672 20.6122 23.2032C21.0719 22.7424 21.3562 22.139 21.4399 21.4943C22.0849 21.411 22.688 21.1263 23.1485 20.6672L23.1492 20.6665C23.3128 20.5026 23.4583 20.3163 23.579 20.1108C23.7447 19.8279 23.8549 19.5318 23.9079 19.2338C23.9334 19.0919 23.9452 18.9506 23.9452 18.8122C23.9452 18.5129 23.8894 18.2255 23.7917 17.9624ZM13.2207 17.8797C12.8046 17.9617 12.6542 17.893 12.5838 17.8605C12.3588 17.7577 12.0884 17.4782 11.7459 17.1245C10.9038 16.2545 9.63093 14.9398 6.74503 13.7457C5.18086 13.0987 3.93028 12.2471 3.02686 11.2153C2.24719 10.3244 1.7414 9.31903 1.52405 8.22787C1.14244 6.31069 1.72603 4.24144 3.01111 2.95631C4.29623 1.67123 6.36548 1.08764 8.28267 1.46925C9.37383 1.68656 10.3788 2.19239 11.2697 2.97206C12.302 3.87553 13.1531 5.12644 13.8005 6.69023C14.9946 9.57614 16.3093 10.849 17.1793 11.6911C17.533 12.0337 17.8124 12.3043 17.9153 12.529C17.9474 12.5994 18.0165 12.7498 17.9345 13.1659L13.2207 17.8797ZM22.6748 19.0145C22.6486 19.16 22.5942 19.3138 22.4983 19.4774C22.4331 19.589 22.3539 19.6905 22.2632 19.7812C21.945 20.1007 21.4762 20.2843 20.9823 20.2682C20.9564 20.1873 20.9279 20.1063 20.8944 20.0265C20.7493 19.6787 20.5284 19.3452 20.2305 19.0473C19.9511 18.7675 19.6037 18.5198 19.1893 18.3168L18.7958 19.1208C19.1293 19.2844 19.3927 19.4756 19.5974 19.6804C19.8157 19.8988 19.9686 20.1328 20.0684 20.3714C20.2176 20.7293 20.248 21.099 20.1831 21.4395C20.1182 21.7796 19.9571 22.0873 19.7265 22.3179C19.6358 22.4086 19.5343 22.4874 19.4227 22.553C19.2591 22.649 19.1053 22.7033 18.9598 22.7292C18.7417 22.7675 18.5384 22.7438 18.3427 22.6719C18.1477 22.5998 17.9625 22.4766 17.8051 22.3193C17.6691 22.1832 17.5547 22.0221 17.4727 21.8546C17.3907 21.6868 17.3415 21.5135 17.3286 21.3544C17.3053 21.075 17.291 20.8814 17.2822 20.7394C17.276 20.633 17.2732 20.5556 17.2717 20.4914C17.2703 20.3955 17.2728 20.3247 17.2759 20.2155C17.2794 20.107 17.2832 19.9664 17.2832 19.7505C17.2822 19.5771 17.2364 19.431 17.1807 19.3022C17.0955 19.1093 16.9822 18.9485 16.8751 18.8128C16.7677 18.6774 16.6651 18.5704 16.5998 18.5048L16.5371 18.4441L15.3001 17.2072L17.1524 15.3549L18.3894 16.5915L18.4504 16.6543C18.538 16.7415 18.6984 16.8946 18.9025 17.0377C19.005 17.1092 19.1188 17.1789 19.2475 17.2354C19.3766 17.2913 19.5224 17.337 19.6961 17.3376C19.8879 17.3376 20.0202 17.3345 20.1237 17.3317C20.2012 17.3296 20.2612 17.3272 20.3184 17.3265C20.4038 17.325 20.4876 17.3261 20.634 17.3341C20.7799 17.3418 20.9853 17.3568 21.3 17.383C21.4587 17.3962 21.6324 17.445 21.7999 17.5274C21.9673 17.6094 22.1285 17.7238 22.2645 17.8598C22.4752 18.0698 22.6224 18.3276 22.6723 18.5959C22.6978 18.7305 22.7002 18.8687 22.6748 19.0145Z" fill="#A0A0A0"/>
</g>
<defs>
<clipPath id="clip0_13_31">
<rect width="24" height="24" fill="white"/>
</clipPath>
</defs>
</svg>
