<svg width="27" height="27" viewBox="0 0 27 27" fill="none" xmlns="http://www.w3.org/2000/svg">
<g clip-path="url(#clip0_16_398)">
<path d="M13.5 0C20.9621 0 27 6.03788 27 13.5C27 20.9621 20.9621 27 13.5 27C6.03788 27 0 20.9621 0 13.5C0 6.03788 6.03788 0 13.5 0ZM13.5 25.3387C20.0129 25.3387 25.3125 20.0121 25.3125 13.5C25.3125 6.98794 20.0129 1.6875 13.5 1.6875C6.98709 1.6875 1.6875 6.98709 1.6875 13.5C1.6875 20.0129 6.98709 25.3387 13.5 25.3387ZM12.5769 14.3438H7.59375C7.11872 14.3438 6.75 13.9742 6.75 13.5C6.75 13.0258 7.11956 12.6562 7.59375 12.6562H19.4062C19.8813 12.6562 20.25 13.0258 20.25 13.5C20.25 13.9742 19.8804 14.3438 19.4062 14.3438H12.5769Z" fill="#5F4646"/>
</g>
<defs>
<clipPath id="clip0_16_398">
<rect width="27" height="27" fill="white"/>
</clipPath>
</defs>
</svg>
