<svg width="27" height="27" viewBox="0 0 27 27" fill="none" xmlns="http://www.w3.org/2000/svg">
<g clip-path="url(#clip0_16_393)">
<path d="M13.5 0C6.04462 0 0 6.04378 0 13.5C0 20.9562 6.04378 27 13.5 27C20.9562 27 27 20.9562 27 13.5C27 6.04378 20.9562 0 13.5 0ZM13.5 25.3395C6.98625 25.3395 1.6875 20.0138 1.6875 13.5C1.6875 6.98625 6.98625 1.6875 13.5 1.6875C20.0138 1.6875 25.3125 6.98625 25.3125 13.5C25.3125 20.0138 20.0138 25.3395 13.5 25.3395ZM19.4062 12.6562H14.3438V7.59375C14.3438 7.128 13.9657 6.75 13.5 6.75C13.0343 6.75 12.6562 7.128 12.6562 7.59375V12.6562H7.59375C7.128 12.6562 6.75 13.0343 6.75 13.5C6.75 13.9657 7.128 14.3438 7.59375 14.3438H12.6562V19.4062C12.6562 19.872 13.0343 20.25 13.5 20.25C13.9657 20.25 14.3438 19.872 14.3438 19.4062V14.3438H19.4062C19.872 14.3438 20.25 13.9657 20.25 13.5C20.25 13.0343 19.872 12.6562 19.4062 12.6562Z" fill="#FAA846"/>
</g>
<defs>
<clipPath id="clip0_16_393">
<rect width="27" height="27" fill="white"/>
</clipPath>
</defs>
</svg>
